<svg id="svg" xmlns="http://www.w3.org/2000/svg" xmlns:xlink="http://www.w3.org/1999/xlink" width="400" height="100.39840637450199" viewBox="0, 0, 400,100.39840637450199"><g id="svgg"><path id="path0" d="M44.303 1.164 C 36.256 2.720,33.129 3.673,28.526 5.976 C -8.166 24.328,-8.166 76.071,28.526 94.423 C 44.458 102.391,64.905 100.635,79.081 90.081 C 113.597 64.385,102.045 11.102,59.957 1.873 C 56.969 1.218,46.481 0.743,44.303 1.164 M65.339 12.624 C 65.339 12.731,64.425 14.560,63.308 16.688 C 62.191 18.816,58.585 25.918,55.296 32.470 L 49.315 44.381 46.478 38.844 C 44.917 35.799,41.277 28.610,38.389 22.869 L 33.137 12.430 49.238 12.430 C 58.093 12.430,65.339 12.518,65.339 12.624 M27.729 30.598 L 27.729 38.566 23.745 38.566 L 19.761 38.566 19.761 30.598 L 19.761 22.629 23.745 22.629 L 27.729 22.629 27.729 30.598 M201.753 49.243 L 201.753 72.669 206.693 72.669 L 211.633 72.669 211.633 49.243 L 211.633 25.817 206.693 25.817 L 201.753 25.817 201.753 49.243 M219.031 32.032 L 219.124 38.248 217.131 38.247 L 215.139 38.247 215.139 42.550 L 215.139 46.853 217.131 46.853 L 219.124 46.854 219.143 56.495 C 219.165 67.669,219.347 68.604,221.979 71.030 C 224.662 73.502,230.686 74.100,235.060 72.327 L 236.972 71.551 237.061 67.357 L 237.150 63.162 235.543 63.772 C 233.433 64.574,231.065 64.575,230.075 63.774 C 229.325 63.166,229.322 63.143,229.228 55.009 L 229.133 46.853 233.132 46.853 L 237.131 46.853 237.131 42.550 L 237.131 38.247 233.147 38.247 L 229.163 38.247 229.163 32.032 L 229.163 25.817 224.051 25.817 L 218.938 25.817 219.031 32.032 M241.275 30.279 L 241.275 34.741 246.534 34.741 L 251.793 34.741 251.793 30.279 L 251.793 25.817 246.534 25.817 L 241.275 25.817 241.275 30.279 M258.486 49.243 L 258.486 72.669 263.586 72.669 L 268.685 72.669 268.685 65.863 L 268.685 59.057 274.183 58.873 C 282.099 58.610,285.809 57.425,289.377 54.023 C 297.017 46.735,295.382 32.807,286.319 27.960 C 282.759 26.056,280.835 25.817,269.112 25.817 L 258.486 25.817 258.486 49.243 M297.689 49.243 L 297.689 72.669 302.629 72.669 L 307.570 72.669 307.570 49.243 L 307.570 25.817 302.629 25.817 L 297.689 25.817 297.689 49.243 M83.825 30.757 L 83.825 34.741 75.697 34.741 L 67.570 34.741 67.570 30.757 L 67.570 26.773 75.697 26.773 L 83.825 26.773 83.825 30.757 M112.829 50.199 L 112.829 72.669 117.935 72.669 L 123.041 72.669 122.955 58.502 C 122.907 50.710,122.960 44.435,123.072 44.558 C 123.184 44.680,125.953 48.855,129.226 53.834 C 134.255 61.486,135.243 62.819,135.603 62.440 C 135.837 62.194,138.697 57.923,141.958 52.949 L 147.888 43.907 147.888 58.288 L 147.888 72.669 152.988 72.669 L 158.088 72.669 158.088 50.199 L 158.088 27.729 152.558 27.729 L 147.029 27.729 141.323 36.966 C 138.185 42.046,135.534 46.205,135.433 46.209 C 135.331 46.212,132.678 42.059,129.536 36.979 L 123.825 27.742 118.327 27.736 L 112.829 27.729 112.829 50.199 M280.248 36.291 C 285.275 38.755,285.028 46.210,279.841 48.567 C 278.650 49.107,277.580 49.239,273.546 49.344 L 268.685 49.471 268.685 42.391 L 268.685 35.312 273.705 35.428 C 278.184 35.533,278.889 35.626,280.248 36.291 M360.100 38.061 C 351.440 40.545,346.720 50.002,349.567 59.162 C 352.828 69.653,365.646 73.541,373.519 66.426 L 375.245 64.866 375.049 67.200 C 374.778 70.433,373.633 72.432,371.290 73.761 C 368.013 75.620,360.677 75.153,355.947 72.785 C 355.120 72.371,354.317 72.032,354.163 72.032 C 353.859 72.032,350.413 79.294,350.627 79.484 C 355.174 83.542,371.243 84.275,377.771 80.721 C 384.172 77.238,385.007 74.095,385.014 53.466 L 385.020 38.247 380.080 38.247 L 375.139 38.247 375.139 40.359 L 375.139 42.472 373.683 41.129 C 370.397 38.101,364.559 36.782,360.100 38.061 M164.147 50.757 C 164.151 63.914,164.246 64.982,165.657 67.729 C 169.005 74.247,178.522 75.396,184.136 69.958 L 185.817 68.330 185.817 70.500 L 185.817 72.669 190.757 72.669 L 195.697 72.669 195.697 55.458 L 195.697 38.247 190.776 38.247 L 185.855 38.247 185.756 49.004 C 185.631 62.661,185.079 64.103,179.949 64.177 C 174.814 64.251,174.343 62.989,174.343 49.175 L 174.343 38.247 169.243 38.247 L 164.143 38.247 164.147 50.757 M241.594 55.458 L 241.594 72.669 246.693 72.669 L 251.793 72.669 251.793 55.458 L 251.793 38.247 246.693 38.247 L 241.594 38.247 241.594 55.458 M313.311 50.757 C 313.315 63.911,313.409 64.979,314.819 67.729 C 318.166 74.257,327.677 75.405,333.299 69.958 L 334.980 68.330 334.980 70.500 L 334.980 72.669 339.920 72.669 L 344.861 72.669 344.861 55.458 L 344.861 38.247 339.940 38.247 L 335.019 38.247 334.920 49.004 C 334.794 62.661,334.242 64.103,329.112 64.177 C 323.950 64.251,323.377 62.771,323.238 49.004 L 323.130 38.247 318.218 38.247 L 313.307 38.247 313.311 50.757 M391.133 38.783 C 388.466 40.097,387.289 44.161,388.896 46.505 C 392.043 51.093,398.999 49.195,399.033 43.739 C 399.059 39.681,394.770 36.991,391.133 38.783 M396.273 40.028 C 398.777 41.861,398.467 46.314,395.745 47.606 C 391.563 49.590,387.575 45.501,389.746 41.454 C 390.916 39.273,394.247 38.545,396.273 40.028 M391.076 43.506 L 391.076 46.534 392.032 46.534 C 392.882 46.534,392.988 46.428,392.988 45.578 C 392.988 45.052,393.128 44.622,393.299 44.622 C 393.469 44.622,393.832 45.052,394.104 45.578 C 394.485 46.315,394.815 46.534,395.546 46.534 C 396.668 46.534,396.698 46.416,395.852 45.340 C 395.275 44.606,395.259 44.469,395.692 43.989 C 397.235 42.285,395.807 40.478,392.917 40.478 L 391.076 40.478 391.076 43.506 M394.523 42.629 C 394.362 43.478,392.806 43.564,392.806 42.724 C 392.806 42.219,393.012 42.072,393.717 42.072 C 394.413 42.072,394.603 42.204,394.523 42.629 M370.915 46.892 C 374.808 48.773,376.310 53.977,374.066 57.806 C 370.687 63.572,360.896 62.363,359.167 55.967 C 357.354 49.258,364.458 43.771,370.915 46.892 M27.729 56.574 L 27.729 64.701 19.602 64.701 L 11.474 64.701 11.474 56.574 L 11.474 48.446 19.602 48.446 L 27.729 48.446 27.729 56.574 M73.479 48.934 C 81.621 51.025,87.003 58.909,85.760 66.925 C 82.928 85.174,57.346 85.833,53.659 67.752 C 51.338 56.368,62.214 46.041,73.479 48.934 M44.303 72.988 L 44.303 80.956 36.175 80.956 L 28.048 80.956 28.048 72.988 L 28.048 65.020 36.175 65.020 L 44.303 65.020 44.303 72.988 " stroke="none" fill="#000000" fill-rule="evenodd"></path></g></svg>