<svg id="svg" xmlns="http://www.w3.org/2000/svg" xmlns:xlink="http://www.w3.org/1999/xlink" width="400" height="102.88540807914262" viewBox="0, 0, 400,102.88540807914262"><g id="svgg"><path id="path0" d="M44.353 1.120 C 3.741 7.828,-12.909 57.079,15.487 86.506 C 47.277 119.450,103.215 97.092,103.215 51.443 C 103.215 20.569,74.618 -3.879,44.353 1.120 M67.931 12.407 C 67.931 12.616,51.303 45.493,51.247 45.395 C 50.717 44.471,34.625 12.520,34.625 12.390 C 34.625 12.286,42.119 12.201,51.278 12.201 C 60.437 12.201,67.931 12.294,67.931 12.407 M29.019 31.327 L 29.019 39.571 24.897 39.571 L 20.775 39.571 20.775 31.327 L 20.775 23.083 24.897 23.083 L 29.019 23.083 29.019 31.327 M208.739 50.618 L 208.739 74.856 214.015 74.856 L 219.291 74.856 219.291 50.618 L 219.291 26.381 214.015 26.381 L 208.739 26.381 208.739 50.618 M226.876 32.646 L 226.876 38.912 224.732 38.912 L 222.589 38.912 222.589 43.528 L 222.589 48.145 224.707 48.145 L 226.825 48.145 226.950 58.120 C 227.086 68.908,227.204 69.703,229.037 72.105 C 231.632 75.509,238.675 76.446,243.849 74.078 L 245.672 73.243 245.672 69.103 C 245.672 66.826,245.607 64.963,245.528 64.963 C 245.450 64.963,244.967 65.124,244.457 65.321 C 242.884 65.928,240.344 66.215,239.242 65.910 C 237.552 65.444,237.428 64.770,237.428 56.044 L 237.428 48.145 241.550 48.145 L 245.672 48.145 245.672 43.510 L 245.672 38.874 241.549 38.975 L 237.427 39.077 237.427 32.729 L 237.428 26.381 232.152 26.381 L 226.876 26.381 226.876 32.646 M249.959 30.998 L 249.959 35.614 255.400 35.614 L 260.841 35.614 260.841 30.998 L 260.841 26.381 255.400 26.381 L 249.959 26.381 249.959 30.998 M267.766 50.618 L 267.766 74.856 273.042 74.856 L 278.318 74.856 278.318 67.601 L 278.318 60.346 283.279 60.346 C 291.579 60.346,296.198 58.901,299.976 55.124 C 307.680 47.420,305.562 32.892,296.061 28.280 C 292.389 26.497,291.352 26.381,279.073 26.381 L 267.766 26.381 267.766 50.618 M307.997 50.618 L 307.997 74.856 313.273 74.856 L 318.549 74.856 318.549 50.618 L 318.549 26.381 313.273 26.381 L 307.997 26.381 307.997 50.618 M86.985 31.315 L 87.077 35.284 78.658 35.284 L 70.239 35.284 70.239 31.245 L 70.239 27.205 78.566 27.276 L 86.892 27.346 86.985 31.315 M117.065 51.443 L 117.065 74.856 122.351 74.856 L 127.637 74.856 127.545 60.099 L 127.453 45.342 132.572 53.092 C 135.387 57.354,138.185 61.620,138.789 62.572 C 139.393 63.524,140.057 64.295,140.265 64.284 C 140.473 64.273,143.462 59.970,146.908 54.722 C 150.354 49.474,153.215 45.180,153.266 45.179 C 153.316 45.178,153.344 51.818,153.328 59.934 L 153.299 74.691 158.597 74.781 L 163.896 74.872 163.811 51.533 L 163.726 28.195 158.120 28.110 L 152.514 28.026 146.463 37.782 C 141.121 46.397,140.365 47.468,140.006 46.935 C 139.782 46.603,137.043 42.214,133.919 37.181 L 128.239 28.030 122.652 28.030 L 117.065 28.030 117.065 51.443 M289.035 36.638 C 294.641 38.169,295.688 46.199,290.686 49.299 C 289.108 50.277,289.027 50.290,283.704 50.399 L 278.318 50.510 278.318 43.392 L 278.318 36.274 283.017 36.276 C 285.602 36.277,288.310 36.440,289.035 36.638 M374.773 38.483 C 365.566 39.707,359.706 48.545,361.408 58.640 C 363.452 70.755,377.920 76.177,386.726 68.129 L 388.566 66.447 388.337 68.755 C 387.526 76.923,378.900 79.669,368.801 74.975 C 367.733 74.478,366.742 74.063,366.599 74.052 C 366.328 74.030,363.067 80.891,363.067 81.483 C 363.067 82.910,371.448 85.132,377.576 85.329 C 389.630 85.717,395.725 82.062,398.016 73.072 C 398.637 70.636,398.681 69.422,398.681 54.688 L 398.681 38.912 393.405 38.912 L 388.129 38.912 388.129 41.097 L 388.129 43.283 386.620 41.892 C 383.636 39.142,379.269 37.885,374.773 38.483 M170.225 52.679 C 170.319 66.140,170.338 66.488,171.074 68.309 C 174.227 76.105,184.361 77.917,190.793 71.834 L 192.631 70.095 192.547 72.393 L 192.464 74.691 197.633 74.782 L 202.803 74.872 202.803 56.892 L 202.803 38.912 197.692 38.912 C 193.821 38.912,192.581 39.012,192.584 39.324 C 192.707 53.529,192.381 61.239,191.591 62.819 C 189.679 66.643,184.199 67.086,181.639 63.623 C 180.611 62.232,180.379 59.560,180.379 49.089 L 180.379 38.912 175.254 38.912 L 170.129 38.912 170.225 52.679 M250.289 56.884 L 250.289 74.856 255.400 74.856 L 260.511 74.856 260.511 56.884 L 260.511 38.912 255.400 38.912 L 250.289 38.912 250.289 56.884 M324.375 39.132 C 324.033 39.473,324.136 61.857,324.492 64.596 C 325.837 74.959,337.321 79.138,344.919 72.031 L 346.579 70.479 346.579 72.667 L 346.579 74.856 351.855 74.856 L 357.131 74.856 357.131 56.884 L 357.131 38.912 351.871 38.912 L 346.610 38.912 346.512 50.536 C 346.392 64.764,345.958 65.918,340.715 65.945 C 335.440 65.972,334.707 63.940,334.707 49.283 L 334.707 38.912 329.651 38.912 C 326.870 38.912,324.496 39.011,324.375 39.132 M383.512 47.842 C 391.701 51.549,389.018 63.043,379.963 63.043 C 374.945 63.043,371.655 59.951,371.655 55.235 C 371.655 49.126,377.835 45.272,383.512 47.842 M29.019 57.955 L 29.019 66.282 20.610 66.282 L 12.201 66.282 12.201 58.093 C 12.201 53.589,12.263 49.842,12.339 49.766 C 12.414 49.691,16.198 49.629,20.747 49.629 L 29.019 49.629 29.019 57.955 M77.824 50.567 C 92.038 55.599,93.184 74.977,79.660 81.632 C 66.369 88.172,51.771 75.260,56.427 61.083 C 59.281 52.393,69.205 47.516,77.824 50.567 M46.167 75.021 L 46.167 83.430 37.758 83.430 L 29.349 83.430 29.349 75.021 L 29.349 66.612 37.758 66.612 L 46.167 66.612 46.167 75.021 " stroke="none" fill="#000000" fill-rule="evenodd"></path></g></svg>