<svg id="svg" xmlns="http://www.w3.org/2000/svg" xmlns:xlink="http://www.w3.org/1999/xlink" width="400" height="341.58730158730157" viewBox="0, 0, 400,341.58730158730157"><g id="svgg"><path id="path0" d="M169.524 5.582 C 17.224 30.737,-50.154 217.515,52.913 328.838 L 61.190 337.778 200.006 337.778 L 338.823 337.778 346.682 329.206 C 383.619 288.921,401.697 229.892,394.301 173.716 C 380.093 65.785,276.079 -12.017,169.524 5.582 M260.317 49.046 C 260.317 49.850,196.289 176.453,196.073 176.077 C 194.030 172.518,132.063 49.481,132.063 48.982 C 132.063 48.582,160.921 48.254,196.190 48.254 C 231.460 48.254,260.317 48.611,260.317 49.046 M110.476 121.905 L 110.476 153.651 94.603 153.651 L 78.730 153.651 78.730 121.905 L 78.730 90.159 94.603 90.159 L 110.476 90.159 110.476 121.905 M333.690 121.858 L 334.046 137.143 301.626 137.143 L 269.206 137.143 269.206 121.587 L 269.206 106.032 301.270 106.303 L 333.333 106.573 333.690 121.858 M110.476 224.444 L 110.476 256.508 78.095 256.508 L 45.714 256.508 45.714 224.974 C 45.714 207.630,45.952 193.201,46.243 192.910 C 46.534 192.619,61.106 192.381,78.624 192.381 L 110.476 192.381 110.476 224.444 M298.413 195.991 C 353.150 215.369,357.563 289.989,305.486 315.616 C 254.304 340.803,198.088 291.082,216.020 236.487 C 227.011 203.025,265.225 184.243,298.413 195.991 M176.508 290.159 L 176.508 322.540 144.127 322.540 L 111.746 322.540 111.746 290.159 L 111.746 257.778 144.127 257.778 L 176.508 257.778 176.508 290.159 " stroke="none" fill="#000000" fill-rule="evenodd"></path></g></svg>