<svg id="svg" xmlns="http://www.w3.org/2000/svg" xmlns:xlink="http://www.w3.org/1999/xlink" width="400" height="86.04651162790698" viewBox="0, 0, 400,86.04651162790698"><g id="svgg"><path id="path0" d="M130.698 35.581 L 130.698 69.767 138.140 69.767 L 145.581 69.767 145.581 35.581 L 145.581 1.395 138.140 1.395 L 130.698 1.395 130.698 35.581 M156.279 10.233 L 156.279 19.070 153.256 19.070 L 150.233 19.070 150.233 25.581 L 150.233 32.093 153.220 32.093 L 156.207 32.093 156.384 46.163 C 156.576 61.379,156.743 62.499,159.327 65.888 C 162.989 70.688,172.922 72.011,180.220 68.670 L 182.791 67.493 182.791 61.654 C 182.791 58.442,182.700 55.814,182.588 55.814 C 182.477 55.814,181.797 56.041,181.077 56.319 C 178.859 57.175,175.276 57.579,173.721 57.150 C 171.338 56.492,171.163 55.542,171.163 43.234 L 171.163 32.093 176.977 32.093 L 182.791 32.093 182.791 25.555 L 182.791 19.017 176.976 19.159 L 171.161 19.302 171.162 10.349 L 171.163 1.395 163.721 1.395 L 156.279 1.395 156.279 10.233 M188.837 7.907 L 188.837 14.419 196.512 14.419 L 204.186 14.419 204.186 7.907 L 204.186 1.395 196.512 1.395 L 188.837 1.395 188.837 7.907 M213.953 35.581 L 213.953 69.767 221.395 69.767 L 228.837 69.767 228.837 59.535 L 228.837 49.302 235.834 49.302 C 247.541 49.302,254.057 47.264,259.385 41.936 C 270.251 31.070,267.263 10.579,253.863 4.073 C 248.684 1.559,247.221 1.395,229.902 1.395 L 213.953 1.395 213.953 35.581 M270.698 35.581 L 270.698 69.767 278.140 69.767 L 285.581 69.767 285.581 35.581 L 285.581 1.395 278.140 1.395 L 270.698 1.395 270.698 35.581 M1.395 36.744 L 1.395 69.767 8.851 69.767 L 16.307 69.767 16.177 48.953 L 16.047 28.140 23.267 39.070 C 27.238 45.081,31.185 51.099,32.036 52.442 C 32.888 53.785,33.825 54.871,34.118 54.856 C 34.411 54.841,38.628 48.772,43.488 41.370 C 48.349 33.968,52.384 27.910,52.455 27.909 C 52.527 27.908,52.566 37.273,52.543 48.721 L 52.501 69.535 59.975 69.663 L 67.448 69.791 67.329 36.872 L 67.209 3.953 59.302 3.835 L 51.395 3.716 42.861 17.477 C 35.325 29.627,34.259 31.138,33.752 30.386 C 33.437 29.918,29.574 23.727,25.168 16.628 L 17.156 3.721 9.276 3.721 L 1.395 3.721 1.395 36.744 M243.953 15.862 C 251.860 18.022,253.336 29.348,246.281 33.721 C 244.056 35.100,243.942 35.118,236.434 35.273 L 228.837 35.429 228.837 25.389 L 228.837 15.349 235.465 15.351 C 239.110 15.353,242.930 15.583,243.953 15.862 M364.884 18.464 C 351.896 20.191,343.631 32.657,346.033 46.896 C 348.915 63.983,369.322 71.631,381.742 60.280 L 384.338 57.907 384.015 61.163 C 382.870 72.684,370.705 76.557,356.460 69.935 C 354.954 69.235,353.556 68.649,353.355 68.633 C 352.972 68.603,348.372 78.280,348.372 79.115 C 348.372 81.127,360.194 84.261,368.837 84.540 C 385.838 85.088,394.435 79.932,397.667 67.251 C 398.543 63.815,398.605 62.103,398.605 41.321 L 398.605 19.070 391.163 19.070 L 383.721 19.070 383.721 22.152 L 383.721 25.235 381.593 23.273 C 377.385 19.394,371.224 17.621,364.884 18.464 M76.376 38.488 C 76.509 57.475,76.535 57.965,77.574 60.534 C 82.020 71.529,96.315 74.085,105.386 65.505 L 107.978 63.053 107.860 66.294 L 107.743 69.535 115.034 69.663 L 122.326 69.791 122.326 44.430 L 122.326 19.070 115.116 19.070 C 109.656 19.070,107.908 19.211,107.912 19.651 C 108.085 39.687,107.626 50.562,106.512 52.791 C 103.815 58.184,96.085 58.809,92.475 53.925 C 91.025 51.962,90.698 48.193,90.698 33.425 L 90.698 19.070 83.469 19.070 L 76.241 19.070 76.376 38.488 M189.302 44.419 L 189.302 69.767 196.512 69.767 L 203.721 69.767 203.721 44.419 L 203.721 19.070 196.512 19.070 L 189.302 19.070 189.302 44.419 M293.798 19.380 C 293.317 19.861,293.462 51.434,293.963 55.297 C 295.860 69.913,312.058 75.808,322.776 65.783 L 325.116 63.594 325.116 66.681 L 325.116 69.767 332.558 69.767 L 340.000 69.767 340.000 44.419 L 340.000 19.070 332.580 19.070 L 325.161 19.070 325.022 35.465 C 324.853 55.534,324.241 57.161,316.846 57.199 C 309.405 57.237,308.372 54.372,308.372 33.698 L 308.372 19.070 301.240 19.070 C 297.318 19.070,293.969 19.209,293.798 19.380 M377.209 31.666 C 388.760 36.894,384.975 53.105,372.204 53.105 C 365.126 53.105,360.486 48.745,360.486 42.093 C 360.486 33.476,369.202 28.041,377.209 31.666 " stroke="none" fill="#000000" fill-rule="evenodd"></path></g></svg>